<svg xmlns="http://www.w3.org/2000/svg" width="457.205" height="457.205" viewBox="0 0 457.205 457.205"><path d="M176.628 86.406H27.823C12.481 86.406 0 98.611 0 113.629v287.86c0 15.007 12.481 27.214 27.823 27.214h148.799c15.346 0 27.823-12.207 27.823-27.214v-287.86c.006-15.009-12.469-27.223-27.817-27.223zm9.376 315.083c0 4.834-4.207 8.768-9.376 8.768H27.823c-5.17 0-9.376-3.934-9.376-8.768v-43.498h167.558v43.498zm0-276.136H18.447v-11.724c0-4.84 4.212-8.776 9.376-8.776h148.799c5.176 0 9.377 3.937 9.377 8.776v11.724h.005z"/><circle cx="102.226" cy="381.688" r="18.834"/><path d="M427.469 28.502H150.783c-16.387 0-29.73 13.336-29.73 29.729v22.02h24.596v-22.02a5.144 5.144 0 0 1 5.134-5.134h276.686a5.135 5.135 0 0 1 5.128 5.134v178.3a5.135 5.135 0 0 1-5.128 5.135H213.47v24.596h63.362v10.761h-36.124c-6.786 0-12.295 5.519-12.295 12.298s5.509 12.298 12.295 12.298h96.076c6.785 0 12.298-5.519 12.298-12.298s-5.513-12.298-12.298-12.298h-35.356v-10.761h126.041c16.394 0 29.735-13.337 29.735-29.73v-178.3c.001-16.394-13.341-29.73-29.735-29.73z"/></svg>