<svg xmlns="http://www.w3.org/2000/svg" width="485.211" height="485.211" viewBox="0 0 485.211 485.211"><path d="M121.304 75.816H30.327C13.564 75.816 0 89.409 0 106.141v333.586c0 16.76 13.564 30.322 30.327 30.322h90.978c16.762 0 30.324-13.562 30.324-30.322V106.141c-.001-16.732-13.563-30.325-30.325-30.325zM45.49 379.073c-8.382 0-15.163-6.781-15.163-15.168 0-8.377 6.781-15.158 15.163-15.158 8.38 0 15.161 6.781 15.161 15.158 0 8.387-6.781 15.168-15.161 15.168zm75.814-181.955H30.327v-30.324h90.978v30.324zm0-60.651H30.327v-30.326h90.978v30.326zm197.119 272.929v-30.322h-90.98v30.322c-16.759 0-30.327 13.567-30.327 30.331h151.629c0-16.764-13.562-30.331-30.322-30.331z"/><path d="M454.889 15.163H90.978c-16.762 0-30.327 13.593-30.327 30.327H454.89v242.604H181.955v60.653h272.934c16.759 0 30.322-13.562 30.322-30.332V45.489c0-16.734-13.564-30.326-30.322-30.326zM272.933 333.584c-8.382 0-15.163-6.777-15.163-15.169 0-8.377 6.781-15.158 15.163-15.158 8.383 0 15.164 6.781 15.164 15.158 0 8.392-6.782 15.169-15.164 15.169z"/></svg>